<svg width="71" height="60" viewBox="0 0 71 60" fill="none" xmlns="http://www.w3.org/2000/svg">
<path d="M35.8184 5.87185C40.8225 1.40655 46.5841 -0.831753 53.4836 0.28363C62.3276 2.53324 68.7787 7.65797 69.9921 19.0567C71.2054 37.2684 57.2217 50.6605 38.7651 59.1804C36.3987 60.2732 33.6667 60.2732 31.3003 59.1804C12.8475 50.6643 -1.14002 37.2722 0.0733363 19.0605C1.29046 7.65798 7.73783 2.53701 16.5855 0.28363C23.4851 -0.831753 29.2467 1.40655 34.2508 5.87185C34.6955 6.27128 35.3737 6.27128 35.8221 5.87185H35.8184Z" fill="#F06292"/>
<mask id="mask0_326_1859" style="mask-type:luminance" maskUnits="userSpaceOnUse" x="0" y="0" width="71" height="60">
<path d="M35.8184 5.87185C40.8225 1.40655 46.5841 -0.831753 53.4836 0.28363C62.3276 2.53324 68.7787 7.65797 69.9921 19.0567C71.2054 37.2684 57.2217 50.6605 38.7651 59.1804C36.3987 60.2732 33.6667 60.2732 31.3003 59.1804C12.8475 50.6643 -1.14002 37.2722 0.0733363 19.0605C1.29046 7.65798 7.73783 2.53701 16.5855 0.28363C23.4851 -0.831753 29.2467 1.40655 34.2508 5.87185C34.6955 6.27128 35.3737 6.27128 35.8221 5.87185H35.8184Z" fill="white"/>
</mask>
<g mask="url(#mask0_326_1859)">
<path d="M53.4609 21.992V79.7998C53.4609 79.9467 53.3403 80.0673 53.1933 80.0673H17.9043C17.7573 80.0673 17.6367 79.9467 17.6367 79.7998V21.9995C17.6367 19.6256 19.5623 17.7 21.9362 17.7C22.0832 17.7 22.2038 17.5795 22.2038 17.4325V17.3157C22.2038 13.6304 25.1919 10.646 28.8735 10.646H32.6605C33.5988 10.646 34.4052 11.1886 34.7895 11.9762C34.8913 12.1834 35.1701 12.1834 35.2718 11.9762C35.66 11.1886 36.4664 10.646 37.4009 10.646H41.1917C44.877 10.646 47.8614 13.6342 47.8614 17.3157V17.4325C47.8614 17.5795 47.9819 17.7 48.1289 17.7H49.1614C51.5353 17.7 53.4571 19.6218 53.4571 21.9958L53.4609 21.992Z" fill="#F7E1C4"/>
</g>
<path d="M22.9904 27.6443C24.8134 27.6443 26.2913 26.1665 26.2913 24.3434C26.2913 22.5204 24.8134 21.0425 22.9904 21.0425C21.1673 21.0425 19.6895 22.5204 19.6895 24.3434C19.6895 26.1665 21.1673 27.6443 22.9904 27.6443Z" fill="#DD8D72"/>
<path d="M47.506 27.6443C49.3291 27.6443 50.8069 26.1665 50.8069 24.3434C50.8069 22.5204 49.3291 21.0425 47.506 21.0425C45.683 21.0425 44.2051 22.5204 44.2051 24.3434C44.2051 26.1665 45.683 27.6443 47.506 27.6443Z" fill="#DD8D72"/>
<path d="M29.4645 22.1579C31.737 22.1579 33.5793 20.3157 33.5793 18.0431C33.5793 15.7705 31.737 13.9282 29.4645 13.9282C27.1919 13.9282 25.3496 15.7705 25.3496 18.0431C25.3496 20.3157 27.1919 22.1579 29.4645 22.1579Z" fill="#DD8D72"/>
<path d="M40.0914 22.1579C42.364 22.1579 44.2063 20.3157 44.2063 18.0431C44.2063 15.7705 42.364 13.9282 40.0914 13.9282C37.8188 13.9282 35.9766 15.7705 35.9766 18.0431C35.9766 20.3157 37.8188 22.1579 40.0914 22.1579Z" fill="#DD8D72"/>
<path d="M34.7849 40.5432C33.206 41.8809 31.3897 42.5516 29.2155 42.2162C26.427 41.5417 24.3922 40.0081 24.0116 36.5979C23.6272 31.1453 28.0398 27.1397 33.8579 24.5886C34.604 24.2608 35.4669 24.2608 36.213 24.5886C42.0311 27.1397 46.4436 31.1453 46.0593 36.5979C45.6749 40.0118 43.6439 41.5417 40.8554 42.2162C38.6812 42.5516 36.8649 41.8809 35.286 40.5432C35.1466 40.4226 34.9318 40.4226 34.7924 40.5432H34.7849Z" fill="#DD8D72"/>
</svg>
