<svg width="15" height="14" viewBox="0 0 15 14" fill="none" xmlns="http://www.w3.org/2000/svg">
<path d="M6.52273 13.7955L0.204545 7.47727C0.128788 7.40152 0.0757576 7.32576 0.0454545 7.25C0.0151515 7.17424 0 7.09091 0 7C0 6.90909 0.0151515 6.82576 0.0454545 6.75C0.0757576 6.67424 0.128788 6.59849 0.204545 6.52273L6.54545 0.181818C6.66667 0.0606061 6.81818 0 7 0C7.18182 0 7.34091 0.0681818 7.47727 0.204545C7.61364 0.340909 7.68182 0.5 7.68182 0.681818C7.68182 0.863636 7.61364 1.02273 7.47727 1.15909L2.31818 6.31818L13.5909 6.31818C13.7879 6.31818 13.9508 6.38258 14.0795 6.51136C14.2083 6.64015 14.2727 6.80303 14.2727 7C14.2727 7.19697 14.2083 7.35985 14.0795 7.48864C13.9508 7.61742 13.7879 7.68182 13.5909 7.68182L2.31818 7.68182L7.5 12.8636C7.62121 12.9848 7.68182 13.1364 7.68182 13.3182C7.68182 13.5 7.61364 13.6591 7.47727 13.7955C7.34091 13.9318 7.18182 14 7 14C6.81818 14 6.65909 13.9318 6.52273 13.7955Z" fill="white"/>
</svg>
