<svg width="120" height="113" viewBox="0 0 120 113" fill="none" xmlns="http://www.w3.org/2000/svg">
<path d="M46.3884 89.3589V113H23.0853H0V73.5259C0 50.9693 3.55717 34.1241 10.6715 22.9904C17.7858 11.7121 29.6915 4.04862 46.3884 0V20.3877C37.2414 21.9782 30.9256 27.039 27.441 35.5701C24.6824 42.2214 23.0853 52.2706 22.6497 65.7178H23.0853H46.3884V89.3589ZM120 89.3589V113H96.6969H73.6116V73.5259C73.6116 50.9693 77.1688 34.1241 84.2831 22.9904C91.3975 11.7121 103.303 4.04862 120 0V20.3877C110.853 21.9782 104.537 27.039 101.053 35.5701C98.294 42.2214 96.6969 52.2706 96.2613 65.7178H96.6969H120V89.3589Z" fill="white" fill-opacity="0.05"/>
</svg>
