<svg width="128" height="128" viewBox="0 0 128 128" fill="none" xmlns="http://www.w3.org/2000/svg">
<rect width="128" height="128" rx="64" fill="#242526"/>
<path d="M63.9987 63.125C60.332 63.125 57.332 61.9583 54.9987 59.625C52.6654 57.2917 51.4987 54.2917 51.4987 50.625C51.4987 46.9583 52.6654 43.9583 54.9987 41.625C57.332 39.2917 60.332 38.125 63.9987 38.125C67.6654 38.125 70.6654 39.2917 72.9987 41.625C75.332 43.9583 76.4987 46.9583 76.4987 50.625C76.4987 54.2917 75.332 57.2917 72.9987 59.625C70.6654 61.9583 67.6654 63.125 63.9987 63.125ZM85.6654 89.875H42.332C40.957 89.875 39.7799 89.3854 38.8008 88.4063C37.8216 87.4271 37.332 86.25 37.332 84.875V82.0417C37.332 79.9306 37.8598 78.125 38.9154 76.625C39.9709 75.125 41.332 73.9861 42.9987 73.2083C46.7209 71.5417 50.2904 70.2917 53.707 69.4583C57.1237 68.625 60.5543 68.2083 63.9987 68.2083C67.4431 68.2083 70.8598 68.6389 74.2487 69.5C77.6376 70.3611 81.191 71.6026 84.9088 73.2245C86.6477 74.0093 88.0419 75.1472 89.0913 76.6383C90.1407 78.1294 90.6654 79.9306 90.6654 82.0417V84.875C90.6654 86.25 90.1758 87.4271 89.1966 88.4063C88.2174 89.3854 87.0404 89.875 85.6654 89.875ZM42.332 84.875H85.6654V82.0417C85.6654 81.1528 85.4015 80.3056 84.8737 79.5C84.3459 78.6944 83.6931 78.0972 82.9154 77.7083C79.3598 75.9861 76.1098 74.8056 73.1654 74.1667C70.2209 73.5278 67.1654 73.2083 63.9987 73.2083C60.832 73.2083 57.7487 73.5278 54.7487 74.1667C51.7487 74.8056 48.4987 75.9861 44.9987 77.7083C44.2209 78.0972 43.582 78.6944 43.082 79.5C42.582 80.3056 42.332 81.1528 42.332 82.0417V84.875ZM63.9987 58.125C66.1654 58.125 67.957 57.4167 69.3737 56C70.7904 54.5833 71.4987 52.7917 71.4987 50.625C71.4987 48.4583 70.7904 46.6667 69.3737 45.25C67.957 43.8333 66.1654 43.125 63.9987 43.125C61.832 43.125 60.0404 43.8333 58.6237 45.25C57.207 46.6667 56.4987 48.4583 56.4987 50.625C56.4987 52.7917 57.207 54.5833 58.6237 56C60.0404 57.4167 61.832 58.125 63.9987 58.125Z" fill="white"/>
</svg>
