<svg width="49" height="49" viewBox="0 0 49 49" fill="none" xmlns="http://www.w3.org/2000/svg">
<g id="Group">
<path id="Vector" d="M34.6146 30.0035C35.3466 30.0035 35.9401 29.4101 35.9401 28.678C35.9401 27.946 35.3466 27.3525 34.6146 27.3525C33.8825 27.3525 33.2891 27.946 33.2891 28.678C33.2891 29.4101 33.8825 30.0035 34.6146 30.0035Z" fill="#FAB200"/>
<path id="Vector_2" d="M37.6174 34.8911C38.5453 34.8911 39.2974 34.139 39.2974 33.2112C39.2974 32.2834 38.5453 31.5312 37.6174 31.5312C36.6896 31.5312 35.9375 32.2834 35.9375 33.2112C35.9375 34.139 36.6896 34.8911 37.6174 34.8911Z" fill="#E73331"/>
<path id="Vector_3" d="M32.8795 46.8181C34.062 46.8181 35.0207 45.8594 35.0207 44.6769C35.0207 43.4943 34.062 42.5356 32.8795 42.5356C31.6969 42.5356 30.7383 43.4943 30.7383 44.6769C30.7383 45.8594 31.6969 46.8181 32.8795 46.8181Z" fill="#BA68C8"/>
<path id="Vector_4" d="M44.6998 34.9997C45.8824 34.9997 46.841 34.041 46.841 32.8585C46.841 31.6759 45.8824 30.7173 44.6998 30.7173C43.5172 30.7173 42.5586 31.6759 42.5586 32.8585C42.5586 34.041 43.5172 34.9997 44.6998 34.9997Z" fill="#BA68C8"/>
<path id="Vector_5" d="M39.9576 11.1994C41.1402 11.1994 42.0988 10.2407 42.0988 9.05818C42.0988 7.87563 41.1402 6.91699 39.9576 6.91699C38.7751 6.91699 37.8164 7.87563 37.8164 9.05818C37.8164 10.2407 38.7751 11.1994 39.9576 11.1994Z" fill="#BA68C8"/>
<path id="Vector_6" d="M39.9576 42.0803C41.1402 42.0803 42.0988 41.1216 42.0988 39.9391C42.0988 38.7565 41.1402 37.7979 39.9576 37.7979C38.7751 37.7979 37.8164 38.7565 37.8164 39.9391C37.8164 41.1216 38.7751 42.0803 39.9576 42.0803Z" fill="#BA68C8"/>
<path id="Vector_7" d="M20.2982 35.9625C21.0302 35.9625 21.6237 35.3691 21.6237 34.637C21.6237 33.905 21.0302 33.3115 20.2982 33.3115C19.5661 33.3115 18.9727 33.905 18.9727 34.637C18.9727 35.3691 19.5661 35.9625 20.2982 35.9625Z" fill="#FAB200"/>
<path id="Vector_8" d="M23.1529 39.9876C23.1529 39.0699 22.3906 38.3076 21.4729 38.3076C20.5553 38.3076 19.793 39.0699 19.793 39.9876C19.793 40.9052 20.5553 41.6675 21.4729 41.6675C22.3906 41.6675 23.1529 40.9052 23.1529 39.9876Z" fill="#E73331"/>
<path id="Vector_9" d="M30.5388 27.7094C31.0456 27.7094 31.4564 27.2985 31.4564 26.7917C31.4564 26.2849 31.0456 25.874 30.5388 25.874C30.0319 25.874 29.6211 26.2849 29.6211 26.7917C29.6211 27.2985 30.0319 27.7094 30.5388 27.7094Z" fill="#BA68C8"/>
<path id="Vector_10" d="M20.3978 28.5729C20.3978 28.0631 19.99 27.6553 19.4802 27.6553C18.9703 27.6553 18.5625 28.0631 18.5625 28.5729C18.5625 29.0827 18.9703 29.4906 19.4802 29.4906C19.99 29.4906 20.3978 29.0827 20.3978 28.5729Z" fill="#BA68C8"/>
<path id="Vector_11" d="M46.3209 26.6403C47.5034 26.6403 48.4621 25.6817 48.4621 24.4991C48.4621 23.3166 47.5034 22.3579 46.3209 22.3579C45.1383 22.3579 44.1797 23.3166 44.1797 24.4991C44.1797 25.6817 45.1383 26.6403 46.3209 26.6403Z" fill="#BA68C8"/>
<path id="Vector_12" d="M16.1217 46.8181C17.3042 46.8181 18.2629 45.8594 18.2629 44.6769C18.2629 43.4943 17.3042 42.5356 16.1217 42.5356C14.9391 42.5356 13.9805 43.4943 13.9805 44.6769C13.9805 45.8594 14.9391 46.8181 16.1217 46.8181Z" fill="#BA68C8"/>
<path id="Vector_13" d="M24.524 48.4997C25.7066 48.4997 26.6652 47.541 26.6652 46.3585C26.6652 45.1759 25.7066 44.2173 24.524 44.2173C23.3415 44.2173 22.3828 45.1759 22.3828 46.3585C22.3828 47.541 23.3415 48.4997 24.524 48.4997Z" fill="#BA68C8"/>
<path id="Vector_14" d="M27.635 38.2568C26.7174 38.2568 25.9551 39.0191 25.9551 39.9368C25.9551 40.8545 26.7174 41.6168 27.635 41.6168C28.5527 41.6168 29.315 40.8545 29.315 39.9368C29.315 39.0191 28.5527 38.2568 27.635 38.2568Z" fill="#E73331"/>
<path id="Vector_15" d="M28.7064 35.9625C29.4384 35.9625 30.0319 35.3691 30.0319 34.637C30.0319 33.905 29.4384 33.3115 28.7064 33.3115C27.9743 33.3115 27.3809 33.905 27.3809 34.637C27.3809 35.3691 27.9743 35.9625 28.7064 35.9625Z" fill="#FAB200"/>
<path id="Vector_16" d="M34.1484 24.4979C34.1484 25.2116 34.7602 25.8234 35.4739 25.8234C36.1877 25.8234 36.7995 25.2116 36.7995 24.4979C36.7995 23.7842 36.1877 23.1724 35.4739 23.1724C34.7602 23.1724 34.1484 23.7842 34.1484 24.4979Z" fill="#FAB200"/>
<path id="Vector_17" d="M39.9592 25.874C39.0416 25.874 38.2793 26.6363 38.2793 27.554C38.2793 28.4716 39.0416 29.2339 39.9592 29.2339C40.8769 29.2339 41.6392 28.4716 41.6392 27.554C41.6392 26.6363 40.8769 25.874 39.9592 25.874Z" fill="#E73331"/>
<path id="Vector_18" d="M39.9592 19.707C39.0416 19.707 38.2793 20.4693 38.2793 21.387C38.2793 22.3046 39.0416 23.0669 39.9592 23.0669C40.8769 23.0669 41.6392 22.3046 41.6392 21.387C41.6392 20.4693 40.8769 19.707 39.9592 19.707Z" fill="#E73331"/>
<path id="Vector_19" d="M22.1833 31.4798C22.6931 31.4798 23.1009 31.072 23.1009 30.5622C23.1009 30.0524 22.6931 29.6445 22.1833 29.6445C21.6735 29.6445 21.2656 30.0524 21.2656 30.5622C21.2656 31.072 21.6735 31.4798 22.1833 31.4798Z" fill="#BA68C8"/>
<path id="Vector_20" d="M34.6146 21.4417C35.3466 21.4417 35.9401 20.8939 35.9401 20.2182C35.9401 19.5424 35.3466 18.9946 34.6146 18.9946C33.8825 18.9946 33.2891 19.5424 33.2891 20.2182C33.2891 20.8939 33.8825 21.4417 34.6146 21.4417Z" fill="#FAB200"/>
<path id="Vector_21" d="M37.5628 17.3648C38.4906 17.3648 39.2427 16.6127 39.2427 15.6848C39.2427 14.757 38.4906 14.0049 37.5628 14.0049C36.635 14.0049 35.8828 14.757 35.8828 15.6848C35.8828 16.6127 36.635 17.3648 37.5628 17.3648Z" fill="#E73331"/>
<path id="Vector_22" d="M44.6998 18.2873C45.8824 18.2873 46.841 17.3287 46.841 16.1461C46.841 14.9635 45.8824 14.0049 44.6998 14.0049C43.5172 14.0049 42.5586 14.9635 42.5586 16.1461C42.5586 17.3287 43.5172 18.2873 44.6998 18.2873Z" fill="#BA68C8"/>
<path id="Vector_23" d="M34.9165 11.3509C34.9165 10.4332 34.1542 9.6709 33.2366 9.6709C32.3189 9.6709 31.5566 10.4332 31.5566 11.3509C31.5566 12.2685 32.3189 13.0308 33.2366 13.0308C34.1542 13.0308 34.9165 12.2685 34.9165 11.3509Z" fill="#E73331"/>
<path id="Vector_24" d="M32.8795 6.46308C34.062 6.46308 35.0207 5.50441 35.0207 4.32186C35.0207 3.1393 34.062 2.18066 32.8795 2.18066C31.6969 2.18066 30.7383 3.1393 30.7383 4.32186C30.7383 5.50441 31.6969 6.46308 32.8795 6.46308Z" fill="#BA68C8"/>
<path id="Vector_25" d="M28.6016 20.4206C28.6016 20.9304 29.0094 21.3383 29.5192 21.3383C30.029 21.3383 30.4369 20.9304 30.4369 20.4206C30.4369 19.9108 30.029 19.5029 29.5192 19.5029C29.0094 19.5029 28.6016 19.9108 28.6016 20.4206Z" fill="#BA68C8"/>
<path id="Vector_26" d="M32.2882 18.0789C33.0203 18.0778 33.6129 17.4836 33.6119 16.7515C33.6108 16.0195 33.0165 15.4268 32.2845 15.4278C31.5524 15.4289 30.9598 16.0232 30.9608 16.7552C30.9619 17.4873 31.5561 18.0799 32.2882 18.0789Z" fill="#FAB200"/>
<path id="Vector_27" d="M31.6055 37.597C31.6055 38.5146 32.3678 39.2769 33.2854 39.2769C34.2031 39.2769 34.9654 38.5146 34.9654 37.597C34.9654 36.6793 34.2031 35.917 33.2854 35.917C32.3678 35.917 31.6055 36.6793 31.6055 37.597Z" fill="#E73331"/>
<path id="Vector_28" d="M32.2882 33.5657C33.0203 33.5647 33.6129 32.9704 33.6119 32.2383C33.6108 31.5062 33.0165 30.9136 32.2845 30.9147C31.5524 30.9157 30.9598 31.5099 30.9608 32.242C30.9619 32.9741 31.5561 33.5667 32.2882 33.5657Z" fill="#FAB200"/>
<path id="Vector_29" d="M30.8923 24.3988C31.3991 24.3988 31.8099 23.988 31.8099 23.4811C31.8099 22.9743 31.3991 22.5635 30.8923 22.5635C30.3855 22.5635 29.9746 22.9743 29.9746 23.4811C29.9746 23.988 30.3855 24.3988 30.8923 24.3988Z" fill="#BA68C8"/>
<path id="Vector_30" d="M20.402 18.5347C19.8922 18.5347 19.4844 18.9425 19.4844 19.4523C19.4844 19.9621 19.8922 20.37 20.402 20.37C20.9118 20.37 21.3197 19.9621 21.3197 19.4523C21.3197 18.9425 20.9118 18.5347 20.402 18.5347Z" fill="#BA68C8"/>
<path id="Vector_31" d="M24.524 4.78241C25.7066 4.78241 26.6652 3.82378 26.6652 2.64122C26.6652 1.45867 25.7066 0.5 24.524 0.5C23.3415 0.5 22.3828 1.45867 22.3828 2.64122C22.3828 3.82378 23.3415 4.78241 24.524 4.78241Z" fill="#BA68C8"/>
<path id="Vector_32" d="M21.3674 10.7393C22.2851 10.7393 23.0474 9.97698 23.0474 9.05932C23.0474 8.14166 22.2851 7.37939 21.3674 7.37939C20.4498 7.37939 19.6875 8.14166 19.6875 9.05932C19.6875 9.97698 20.4498 10.7393 21.3674 10.7393Z" fill="#E73331"/>
<path id="Vector_33" d="M25.8516 9.00515C25.8516 9.92281 26.6139 10.6851 27.5315 10.6851C28.4492 10.6851 29.2115 9.92281 29.2115 9.00515C29.2115 8.08749 28.4492 7.3252 27.5315 7.3252C26.6139 7.3252 25.8516 8.08749 25.8516 9.00515Z" fill="#E73331"/>
<path id="Vector_34" d="M16.7357 33.5675C17.4677 33.5675 18.0612 32.9741 18.0612 32.242C18.0612 31.5099 17.4677 30.9165 16.7357 30.9165C16.0036 30.9165 15.4102 31.5099 15.4102 32.242C15.4102 32.9741 16.0036 33.5675 16.7357 33.5675Z" fill="#FAB200"/>
<path id="Vector_35" d="M20.2982 15.6842C21.0302 15.6842 21.6237 15.0908 21.6237 14.3587C21.6237 13.6267 21.0302 13.0332 20.2982 13.0332C19.5661 13.0332 18.9727 13.6267 18.9727 14.3587C18.9727 15.0908 19.5661 15.6842 20.2982 15.6842Z" fill="#FAB200"/>
<path id="Vector_36" d="M18.4684 23.122C18.9752 23.122 19.3861 22.7111 19.3861 22.2043C19.3861 21.6975 18.9752 21.2866 18.4684 21.2866C17.9616 21.2866 17.5508 21.6975 17.5508 22.2043C17.5508 22.7111 17.9616 23.122 18.4684 23.122Z" fill="#BA68C8"/>
<path id="Vector_37" d="M27.7338 18.4362C27.7338 17.9264 27.3259 17.5186 26.8161 17.5186C26.3063 17.5186 25.8984 17.9264 25.8984 18.4362C25.8984 18.946 26.3063 19.3539 26.8161 19.3539C27.3259 19.3539 27.7338 18.946 27.7338 18.4362Z" fill="#BA68C8"/>
<path id="Vector_38" d="M24.5267 14.8664C25.2587 14.8664 25.8522 14.2729 25.8522 13.5409C25.8522 12.8088 25.2587 12.2153 24.5267 12.2153C23.7946 12.2153 23.2012 12.8088 23.2012 13.5409C23.2012 14.2729 23.7946 14.8664 24.5267 14.8664Z" fill="#FAB200"/>
<path id="Vector_39" d="M24.5267 36.7785C25.2404 36.7785 25.8522 36.1667 25.8522 35.453C25.8522 34.7392 25.2404 34.1274 24.5267 34.1274C23.8129 34.1274 23.2012 34.7392 23.2012 35.453C23.2012 36.1667 23.8129 36.7785 24.5267 36.7785Z" fill="#FAB200"/>
<path id="Vector_40" d="M24.3705 18.0759C24.3705 17.5661 23.9626 17.1582 23.4528 17.1582C22.943 17.1582 22.5352 17.5661 22.5352 18.0759C22.5352 18.5857 22.943 18.9935 23.4528 18.9935C23.9626 18.9935 24.3705 18.5857 24.3705 18.0759Z" fill="#BA68C8"/>
<path id="Vector_41" d="M28.7064 15.6842C29.4384 15.6842 30.0319 15.0908 30.0319 14.3587C30.0319 13.6267 29.4384 13.0332 28.7064 13.0332C27.9743 13.0332 27.3809 13.6267 27.3809 14.3587C27.3809 15.0908 27.9743 15.6842 28.7064 15.6842Z" fill="#FAB200"/>
<path id="Vector_42" d="M26.4642 30.9201C26.4642 30.4103 26.0564 30.0024 25.5466 30.0024C25.0368 30.0024 24.6289 30.4103 24.6289 30.9201C24.6289 31.4299 25.0368 31.8378 25.5466 31.8378C26.0564 31.8378 26.4642 31.4299 26.4642 30.9201Z" fill="#BA68C8"/>
<path id="Vector_43" d="M28.6032 30.4632C29.113 30.4632 29.5209 30.0554 29.5209 29.5456C29.5209 29.0358 29.113 28.6279 28.6032 28.6279C28.0934 28.6279 27.6855 29.0358 27.6855 29.5456C27.6855 30.0554 28.0934 30.4632 28.6032 30.4632Z" fill="#BA68C8"/>
<path id="Vector_44" d="M14.0859 37.6438C14.0859 38.5615 14.8482 39.3238 15.7659 39.3238C16.6835 39.3238 17.4458 38.5615 17.4458 37.6438C17.4458 36.7261 16.6835 35.9639 15.7659 35.9639C14.8482 35.9639 14.0859 36.7261 14.0859 37.6438Z" fill="#E73331"/>
<path id="Vector_45" d="M4.30917 18.2873C5.49173 18.2873 6.45038 17.3287 6.45038 16.1461C6.45038 14.9635 5.49173 14.0049 4.30917 14.0049C3.12662 14.0049 2.16797 14.9635 2.16797 16.1461C2.16797 17.3287 3.12662 18.2873 4.30917 18.2873Z" fill="#BA68C8"/>
<path id="Vector_46" d="M4.30917 34.9997C5.49173 34.9997 6.45038 34.041 6.45038 32.8585C6.45038 31.6759 5.49173 30.7173 4.30917 30.7173C3.12662 30.7173 2.16797 31.6759 2.16797 32.8585C2.16797 34.041 3.12662 34.9997 4.30917 34.9997Z" fill="#BA68C8"/>
<path id="Vector_47" d="M4.81952 24.4991C4.81952 23.329 3.85331 22.3579 2.67831 22.3579C1.50332 22.3579 0.537109 23.3241 0.537109 24.4991C0.537109 25.6741 1.50332 26.6403 2.67831 26.6403C3.85331 26.6403 4.81952 25.6741 4.81952 24.4991Z" fill="#BA68C8"/>
<path id="Vector_48" d="M9.04355 11.1994C10.2261 11.1994 11.1848 10.2407 11.1848 9.05818C11.1848 7.87563 10.2261 6.91699 9.04355 6.91699C7.86099 6.91699 6.90234 7.87563 6.90234 9.05818C6.90234 10.2407 7.86099 11.1994 9.04355 11.1994Z" fill="#BA68C8"/>
<path id="Vector_49" d="M9.04355 42.0803C10.2261 42.0803 11.1848 41.1216 11.1848 39.9391C11.1848 38.7565 10.2261 37.7979 9.04355 37.7979C7.86099 37.7979 6.90234 38.7565 6.90234 39.9391C6.90234 41.1216 7.86099 42.0803 9.04355 42.0803Z" fill="#BA68C8"/>
<path id="Vector_50" d="M11.4378 31.6313C10.5201 31.6313 9.75781 32.3936 9.75781 33.3113C9.75781 34.229 10.5201 34.9913 11.4378 34.9913C12.3554 34.9913 13.1177 34.229 13.1177 33.3113C13.1177 32.3936 12.3554 31.6313 11.4378 31.6313Z" fill="#E73331"/>
<path id="Vector_51" d="M14.3919 30.0035C15.124 30.0035 15.7174 29.4101 15.7174 28.678C15.7174 27.946 15.124 27.3525 14.3919 27.3525C13.6599 27.3525 13.0664 27.946 13.0664 28.678C13.0664 29.4101 13.6599 30.0035 14.3919 30.0035Z" fill="#FAB200"/>
<path id="Vector_52" d="M9.03932 25.9287C8.12166 25.9287 7.35938 26.691 7.35938 27.6087C7.35938 28.5263 8.12166 29.2886 9.03932 29.2886C9.95698 29.2886 10.7193 28.5263 10.7193 27.6087C10.7193 26.691 9.95698 25.9287 9.03932 25.9287Z" fill="#E73331"/>
<path id="Vector_53" d="M12.207 24.4979C12.207 25.2116 12.8188 25.8234 13.5325 25.8234C14.2463 25.8234 14.858 25.2116 14.858 24.4979C14.858 23.7842 14.2463 23.1724 13.5325 23.1724C12.8188 23.1724 12.207 23.7842 12.207 24.4979Z" fill="#FAB200"/>
<path id="Vector_54" d="M9.03932 19.7607C8.12166 19.7607 7.35938 20.523 7.35938 21.4407C7.35938 22.3583 8.12166 23.1206 9.03932 23.1206C9.95698 23.1206 10.7193 22.3583 10.7193 21.4407C10.7193 20.523 9.95698 19.7607 9.03932 19.7607Z" fill="#E73331"/>
<path id="Vector_55" d="M16.1217 6.46308C17.3042 6.46308 18.2629 5.50441 18.2629 4.32186C18.2629 3.1393 17.3042 2.18066 16.1217 2.18066C14.9391 2.18066 13.9805 3.1393 13.9805 4.32186C13.9805 5.50441 14.9391 6.46308 16.1217 6.46308Z" fill="#BA68C8"/>
<path id="Vector_56" d="M17.399 11.4026C17.399 10.485 16.6367 9.72266 15.719 9.72266C14.8014 9.72266 14.0391 10.485 14.0391 11.4026C14.0391 12.3203 14.8014 13.0826 15.719 13.0826C16.6367 13.0826 17.399 12.3203 17.399 11.4026Z" fill="#E73331"/>
<path id="Vector_57" d="M14.3919 21.6457C15.124 21.6457 15.7174 21.0522 15.7174 20.3201C15.7174 19.5881 15.124 18.9946 14.3919 18.9946C13.6599 18.9946 13.0664 19.5881 13.0664 20.3201C13.0664 21.0522 13.6599 21.6457 14.3919 21.6457Z" fill="#FAB200"/>
<path id="Vector_58" d="M18.1071 26.4359C18.6139 26.4359 19.0248 26.0251 19.0248 25.5183C19.0248 25.0114 18.6139 24.6006 18.1071 24.6006C17.6003 24.6006 17.1895 25.0114 17.1895 25.5183C17.1895 26.0251 17.6003 26.4359 18.1071 26.4359Z" fill="#BA68C8"/>
<path id="Vector_59" d="M9.70898 15.7845C9.70898 16.7021 10.4713 17.4644 11.3889 17.4644C12.3066 17.4644 13.0689 16.7021 13.0689 15.7845C13.0689 14.8668 12.3066 14.1045 11.3889 14.1045C10.4713 14.1045 9.70898 14.8668 9.70898 15.7845Z" fill="#E73331"/>
<path id="Vector_60" d="M16.7357 18.0841C17.4677 18.0841 18.0612 17.4907 18.0612 16.7586C18.0612 16.0266 17.4677 15.4331 16.7357 15.4331C16.0036 15.4331 15.4102 16.0266 15.4102 16.7586C15.4102 17.4907 16.0036 18.0841 16.7357 18.0841Z" fill="#FAB200"/>
</g>
</svg>
