<svg width="49" height="48" viewBox="0 0 49 48" fill="none" xmlns="http://www.w3.org/2000/svg">
<rect width="49" height="48" rx="24" fill="white"/>
<path d="M24.4956 42C23.5319 42 22.7083 41.6569 22.025 40.9706C21.3417 40.2843 21 39.4593 21 38.4956C21 37.5319 21.3431 36.7083 22.0294 36.025C22.7157 35.3417 23.5407 35 24.5044 35C25.4681 35 26.2917 35.3431 26.975 36.0294C27.6583 36.7157 28 37.5407 28 38.5045C28 39.4682 27.6569 40.2917 26.9706 40.975C26.2843 41.6583 25.4593 42 24.4956 42ZM24.4956 30C23.5319 30 22.7083 29.6573 22.025 28.9719C21.3417 28.2865 21 27.4625 21 26.5V9.5C21 8.5375 21.3431 7.71353 22.0294 7.0281C22.7157 6.3427 23.5407 6 24.5044 6C25.4681 6 26.2917 6.3427 26.975 7.0281C27.6583 7.71353 28 8.5375 28 9.5V26.5C28 27.4625 27.6569 28.2865 26.9706 28.9719C26.2843 29.6573 25.4593 30 24.4956 30Z" fill="#101010"/>
</svg>
