<svg width="128" height="128" viewBox="0 0 128 128" fill="none" xmlns="http://www.w3.org/2000/svg">
<rect width="128" height="128" rx="64" fill="#242526"/>
<path d="M71.7436 70.0253L71.749 70.0336L71.7545 70.0419C72.5514 71.2608 73.3852 72.4353 74.256 73.565C75.1536 74.7295 76.1329 75.8421 77.1921 76.9029C78.4036 78.1574 79.5411 79.4626 80.6051 80.8187C81.3165 81.7254 81.6654 82.7262 81.6654 83.9335C81.6654 85.1537 81.3039 86.1097 80.5868 86.947C79.9645 87.6736 79.2678 88.0002 78.2654 88.0002C76.0329 88.0002 73.8232 87.8142 71.6343 87.4425C69.112 87.0142 66.5662 86.8002 63.9987 86.8002C61.4311 86.8002 58.8854 87.0142 56.3631 87.4425C54.1742 87.8142 51.9645 88.0002 49.732 88.0002C48.7296 88.0002 48.0329 87.6736 47.4106 86.947C46.6935 86.1097 46.332 85.1537 46.332 83.9335C46.332 82.7262 46.6809 81.7254 47.3922 80.8187C48.4563 79.4626 49.5938 78.1573 50.8053 76.9028C51.8647 75.8419 52.8529 74.7204 53.7694 73.5386C54.6621 72.3875 55.5078 71.2012 56.3065 69.9801C57.4986 68.1719 58.8328 66.4892 60.3099 64.9301C61.3476 63.8347 62.5175 63.3335 63.9987 63.3335C65.481 63.3335 66.6701 63.8362 67.7351 64.945C69.2215 66.4925 70.5576 68.1849 71.7436 70.0253ZM43.3226 60.6668C42.4145 60.6668 41.7682 60.3874 41.1924 59.8085C40.6125 59.2255 40.332 58.571 40.332 57.6574C40.332 56.7493 40.6114 56.103 41.1903 55.5272C41.7734 54.9473 42.4278 54.6668 43.3414 54.6668C44.2496 54.6668 44.8959 54.9462 45.4716 55.5251C46.0515 56.1082 46.332 56.7626 46.332 57.6762C46.332 58.5844 46.0526 59.2307 45.4737 59.8064C44.8907 60.3863 44.2362 60.6668 43.3226 60.6668ZM55.656 49.3335C54.7478 49.3335 54.1015 49.0541 53.5257 48.4752C52.9459 47.8922 52.6654 47.2377 52.6654 46.3241C52.6654 45.4159 52.9448 44.7697 53.5237 44.1939C54.1067 43.614 54.7612 43.3335 55.6748 43.3335C56.5829 43.3335 57.2292 43.6129 57.805 44.1918C58.3849 44.7748 58.6654 45.4293 58.6654 46.3429C58.6654 47.2511 58.386 47.8973 57.8071 48.4731C57.224 49.053 56.5695 49.3335 55.656 49.3335ZM72.3226 49.3335C71.4145 49.3335 70.7682 49.0541 70.1924 48.4752C69.6125 47.8922 69.332 47.2377 69.332 46.3241C69.332 45.4159 69.6114 44.7697 70.1903 44.1939C70.7734 43.614 71.4278 43.3335 72.3414 43.3335C73.2496 43.3335 73.8959 43.6129 74.4716 44.1918C75.0515 44.7748 75.332 45.4293 75.332 46.3429C75.332 47.2511 75.0526 47.8973 74.4737 48.4731C73.8907 49.053 73.2362 49.3335 72.3226 49.3335ZM84.656 60.6668C83.7478 60.6668 83.1015 60.3874 82.5257 59.8085C81.9459 59.2255 81.6654 58.571 81.6654 57.6574C81.6654 56.7493 81.9448 56.103 82.5237 55.5272C83.1067 54.9473 83.7612 54.6668 84.6748 54.6668C85.5829 54.6668 86.2292 54.9462 86.805 55.5251C87.3849 56.1082 87.6654 56.7626 87.6654 57.6762C87.6654 58.5844 87.386 59.2307 86.8071 59.8064C86.224 60.3863 85.5695 60.6668 84.656 60.6668Z" stroke="white" stroke-width="6"/>
</svg>
