<svg width="128" height="128" viewBox="0 0 128 128" fill="none" xmlns="http://www.w3.org/2000/svg">
<rect width="128" height="128" rx="64" fill="#242526"/>
<path d="M35.3333 84C33.9583 84 32.7813 83.5104 31.8021 82.5313C30.8229 81.5521 30.3333 80.375 30.3333 79V39C30.3333 37.625 30.8229 36.4479 31.8021 35.4688C32.7813 34.4896 33.9583 34 35.3333 34H92C93.375 34 94.5521 34.4896 95.5313 35.4688C96.5104 36.4479 97 37.625 97 39V79C97 80.375 96.5104 81.5521 95.5313 82.5313C94.5521 83.5104 93.375 84 92 84H35.3333ZM35.3333 79H92V39H35.3333V79ZM29.5 94C28.7917 94 28.1979 93.759 27.7188 93.2771C27.2396 92.7951 27 92.1979 27 91.4854C27 90.7729 27.2396 90.1806 27.7188 89.7083C28.1979 89.2361 28.7917 89 29.5 89H97.8333C98.5417 89 99.1354 89.241 99.6146 89.7229C100.094 90.2049 100.333 90.8021 100.333 91.5146C100.333 92.2271 100.094 92.8194 99.6146 93.2917C99.1354 93.7639 98.5417 94 97.8333 94H29.5Z" fill="white"/>
</svg>
