<svg width="128" height="128" viewBox="0 0 128 128" fill="none" xmlns="http://www.w3.org/2000/svg">
<rect width="128" height="128" rx="64" fill="#242526"/>
<path d="M88.5 92.0832L68.4167 71.9998C66.75 73.4443 64.8067 74.5693 62.5867 75.3748C60.3668 76.1804 58.0046 76.5832 55.5 76.5832C49.491 76.5832 44.4054 74.4998 40.2433 70.3332C36.0811 66.1665 34 61.1387 34 55.2498C34 49.361 36.0833 44.3332 40.25 40.1665C44.4167 35.9998 49.4583 33.9165 55.375 33.9165C61.2917 33.9165 66.3194 35.9998 70.4583 40.1665C74.5972 44.3332 76.6667 49.3651 76.6667 55.2623C76.6667 57.6429 76.2778 59.9443 75.5 62.1665C74.7222 64.3887 73.5556 66.4721 72 68.4165L92.25 88.4998C92.75 88.9688 93 89.5444 93 90.2266C93 90.9088 92.7246 91.5252 92.1739 92.0759C91.6691 92.5808 91.0494 92.8332 90.3148 92.8332C89.5803 92.8332 88.9753 92.5832 88.5 92.0832ZM55.4167 71.5832C59.9306 71.5832 63.7674 69.986 66.9271 66.7915C70.0868 63.5971 71.6667 59.7498 71.6667 55.2498C71.6667 50.7498 70.0868 46.9026 66.9271 43.7082C63.7674 40.5137 59.9306 38.9165 55.4167 38.9165C50.8565 38.9165 46.9803 40.5137 43.7882 43.7082C40.5961 46.9026 39 50.7498 39 55.2498C39 59.7498 40.5961 63.5971 43.7882 66.7915C46.9803 69.986 50.8565 71.5832 55.4167 71.5832Z" fill="white"/>
</svg>
