<svg width="67" height="61" viewBox="0 0 67 61" fill="none" xmlns="http://www.w3.org/2000/svg">
<path d="M48.8668 30.549C48.8668 33.5908 46.4766 36.054 43.524 36.054H23.4088C20.4562 36.054 18.0566 33.5908 18.0566 30.549C18.0566 27.5073 20.4562 25.0347 23.4088 25.0347H43.524C46.4766 25.0347 48.8668 27.5073 48.8668 30.549V30.549Z" fill="#1B8C63"/>
<path d="M19.1988 55.0739L17.1068 52.9819C16.1305 52.0057 16.1291 50.4133 17.1036 49.4388L39.9419 26.6011C42.0898 24.4532 45.5734 24.463 47.7186 26.6081C49.8704 28.7598 49.8669 32.2433 47.7256 34.3845L27.0285 55.0809C24.8674 57.2421 21.3572 57.2323 19.1988 55.0739Z" fill="url(#paint0_linear_324_1844)"/>
<path d="M47.8012 5.92609L49.8932 8.01805C50.8695 8.9943 50.8695 10.5882 49.8932 11.5644L27.0138 34.4432C24.862 36.5949 21.3753 36.5883 19.2302 34.4432C17.0784 32.2915 17.085 28.8048 19.2302 26.6598L39.9578 5.93273C42.1229 3.76772 45.6361 3.77436 47.7946 5.93273L47.8012 5.92609Z" fill="url(#paint1_linear_324_1844)"/>
<path opacity="0.4" d="M49.9357 11.5723L28.1949 33.3939L25.4785 35.6043L47.8469 5.91943L49.9357 8.01694C50.9099 8.99514 50.9099 10.5847 49.9357 11.5723V11.5723Z" fill="url(#paint2_linear_324_1844)"/>
<path opacity="0.4" d="M47.7026 34.3931L26.9685 55.118C25.8693 56.2167 24.4319 56.7613 23.0039 56.7425L47.7026 26.6084C49.854 28.7588 49.854 32.2427 47.7026 34.3931Z" fill="url(#paint3_linear_324_1844)"/>
<defs>
<linearGradient id="paint0_linear_324_1844" x1="32.658" y1="25.7576" x2="34.1512" y2="56.4521" gradientUnits="userSpaceOnUse">
<stop stop-color="#81BE5C"/>
<stop offset="1" stop-color="#00936C"/>
</linearGradient>
<linearGradient id="paint1_linear_324_1844" x1="47.9116" y1="5.83803" x2="19.3027" y2="34.4477" gradientUnits="userSpaceOnUse">
<stop stop-color="#81BE5C"/>
<stop offset="1" stop-color="#00936C"/>
</linearGradient>
<linearGradient id="paint2_linear_324_1844" x1="47.8937" y1="5.94765" x2="29.3919" y2="37.8706" gradientUnits="userSpaceOnUse">
<stop stop-color="#CAEC50"/>
<stop offset="1" stop-color="#00936C" stop-opacity="0"/>
</linearGradient>
<linearGradient id="paint3_linear_324_1844" x1="46.735" y1="26.045" x2="27.517" y2="59.3418" gradientUnits="userSpaceOnUse">
<stop stop-color="#CAEC50"/>
<stop offset="1" stop-color="#00936C" stop-opacity="0"/>
</linearGradient>
</defs>
</svg>
