<svg width="49" height="23" viewBox="0 0 49 23" fill="none" xmlns="http://www.w3.org/2000/svg">
<g id="Group 238381">
<path id="Vector" d="M3.0104 0.957219C3.7186 0.957219 4.36337 1.19447 4.93944 1.66367C5.45209 2.13816 5.71107 2.72862 5.71107 3.43507V13.5362C5.71107 14.3639 5.8749 15.044 6.19729 15.5765C6.64652 16.3462 7.19617 16.8471 7.84094 17.0843C8.4223 17.2636 9.06708 17.3479 9.77527 17.3479C11.3819 17.3479 12.4812 16.9051 13.0573 16.0194L13.348 15.5765C13.6704 14.9281 13.8289 14.248 13.8289 13.5362V3.43507C13.8289 2.49138 14.2781 1.77966 15.1819 1.31045C16.0856 0.83597 16.9207 0.83597 17.6923 1.31045C18.5907 1.78493 19.0453 2.49138 19.0453 3.43507V13.5362C18.6594 17.6115 16.6617 20.2739 13.0573 21.5128C12.0267 21.866 10.9327 22.0453 9.77527 22.0453C6.68352 22.0453 4.26824 20.9803 2.52946 18.8557C2.20707 18.5025 1.9164 18.1176 1.65743 17.7064C0.88581 16.3462 0.5 14.9597 0.5 13.5415V3.44034C0.5 2.37539 0.980943 1.63731 1.94811 1.2261C2.2705 1.05212 2.62459 0.962496 3.0104 0.962496" fill="#71CBFF"/>
<path id="Vector_2" d="M21.9551 9.58907C21.9551 7.51478 22.6496 5.70507 24.0386 4.16522C25.6934 2.26555 28.1079 1.31836 31.2765 1.31836C36.0404 1.73639 38.9811 3.66252 40.1043 7.10203C40.2996 7.8746 40.4352 8.70538 40.5003 9.59436V19.733C40.5003 20.6802 40.0066 21.3628 39.0137 21.7755C38.6176 21.9555 38.2541 22.0454 37.9231 22.0454C36.8 22.0454 36.0404 21.5692 35.6443 20.622C35.5086 20.3257 35.4435 20.0293 35.4435 19.733V9.59436C35.3133 7.39836 33.9243 6.1866 31.2765 5.94848C29.0303 5.94848 27.6738 6.89567 27.2126 8.79534C27.1475 9.09167 27.115 9.36153 27.115 9.59436V19.733C27.115 20.6802 26.5833 21.3628 25.5252 21.7755C25.2594 21.9555 24.9338 22.0454 24.5323 22.0454C23.4092 22.0454 22.617 21.5692 22.1504 20.622C22.0202 20.3257 21.9551 20.0293 21.9551 19.733V9.59436V9.58907Z" fill="#71CBFF"/>
<path id="Vector_3" d="M45.7187 0.95459C44.5535 0.95459 43.7654 1.42907 43.3545 2.37276C43.1462 2.66799 43.0449 2.99486 43.0449 3.34809V19.6544C43.0449 20.5401 43.4896 21.2202 44.3846 21.6894C45.274 22.1639 46.2028 22.1639 47.1597 21.6894C48.0491 21.2202 48.4994 20.5348 48.4994 19.6544V3.34809C48.4994 2.69963 48.2236 2.13552 47.6776 1.66631C47.1935 1.19183 46.5461 0.959867 45.7187 0.959867" fill="#71CBFF"/>
<path id="Vector_4" d="M24.4506 0.95459C23.3631 0.95459 22.6275 1.42907 22.244 2.37276C22.0496 2.66799 21.9551 2.99486 21.9551 3.34809V19.6544C21.9551 20.5401 22.3701 21.2202 23.2055 21.6894C24.0355 22.1639 24.9024 22.1639 25.7955 21.6894C26.6256 21.2202 27.0459 20.5348 27.0459 19.6544V3.34809C27.0459 2.69963 26.7885 2.13552 26.2789 1.66631C25.8323 1.19183 25.2229 0.959867 24.4558 0.959867" fill="#71CBFF"/>
</g>
</svg>
