<svg width="128" height="128" viewBox="0 0 128 128" fill="none" xmlns="http://www.w3.org/2000/svg">
<rect width="128" height="128" rx="64" fill="#242526"/>
<path d="M79.3346 94C77.9596 94 76.7825 93.5104 75.8034 92.5313C74.8242 91.5521 74.3346 90.375 74.3346 89V83.5833H66.5013C65.1263 83.5833 63.9492 83.0938 62.9701 82.1146C61.9909 81.1354 61.5013 79.9583 61.5013 78.5833V49.4167H53.7513V55.25C53.7513 56.625 53.2617 57.8021 52.2826 58.7813C51.3034 59.7604 50.1263 60.25 48.7513 60.25H35.668C34.293 60.25 33.1159 59.7604 32.1367 58.7813C31.1576 57.8021 30.668 56.625 30.668 55.25V39C30.668 37.625 31.1576 36.4479 32.1367 35.4688C33.1159 34.4896 34.293 34 35.668 34H48.7513C50.1263 34 51.3034 34.4896 52.2826 35.4688C53.2617 36.4479 53.7513 37.625 53.7513 39V44.4167H74.3346V39C74.3346 37.625 74.8242 36.4479 75.8034 35.4688C76.7825 34.4896 77.9596 34 79.3346 34H92.3346C93.7096 34 94.8867 34.4896 95.8659 35.4688C96.845 36.4479 97.3346 37.625 97.3346 39V55.25C97.3346 56.625 96.845 57.8021 95.8659 58.7813C94.8867 59.7604 93.7096 60.25 92.3346 60.25H79.3346C77.9596 60.25 76.7825 59.7604 75.8034 58.7813C74.8242 57.8021 74.3346 56.625 74.3346 55.25V49.4167H66.5013V78.5833H74.3346V72.75C74.3346 71.375 74.8242 70.1979 75.8034 69.2188C76.7825 68.2396 77.9596 67.75 79.3346 67.75H92.3346C93.7096 67.75 94.8867 68.2396 95.8659 69.2188C96.845 70.1979 97.3346 71.375 97.3346 72.75V89C97.3346 90.375 96.845 91.5521 95.8659 92.5313C94.8867 93.5104 93.7096 94 92.3346 94H79.3346ZM79.3346 55.25H92.3346V39H79.3346V55.25ZM79.3346 89H92.3346V72.75H79.3346V89ZM35.668 55.25H48.7513V39H35.668V55.25Z" fill="white"/>
</svg>
