<svg width="18" height="18" viewBox="0 0 18 18" fill="none" xmlns="http://www.w3.org/2000/svg">
<g id="Camada_1" clip-path="url(#clip0_128_2331)">
<path id="Vector" d="M8.07982 0C8.74247 0 9.40512 0 10.067 0C9.9375 0.0112952 9.80798 0.0218373 9.71009 0.0308735C9.96536 0.061747 10.2545 0.0850904 10.5399 0.13253C11.3667 0.269578 12.1566 0.524849 12.9089 0.894578C13.7764 1.32154 14.5527 1.87349 15.2432 2.5512C15.9706 3.26506 16.5633 4.0738 17.0128 4.9872C17.5986 6.17621 17.8923 7.43599 17.9217 8.75979C17.9337 9.28615 17.8923 9.80798 17.811 10.3276C17.6905 11.0964 17.4782 11.8396 17.1574 12.5467C16.634 13.7011 15.9059 14.7101 14.9593 15.5595C14.0813 16.3471 13.0881 16.9428 11.9782 17.3358C10.7086 17.7861 9.40211 17.9413 8.05949 17.7967C7.23193 17.7071 6.43148 17.5151 5.6619 17.1988C5.37651 17.0813 5.10241 16.9383 4.82078 16.8117C4.77259 16.7899 4.7116 16.7756 4.6619 16.7854C4.52184 16.8133 4.38404 16.8554 4.24548 16.8923C2.91265 17.2425 1.57982 17.5919 0.246235 17.9413C0.17244 17.9608 0.0978916 17.9767 0 18C0.0218373 17.9247 0.0376506 17.8705 0.0527108 17.8155C0.448795 16.366 0.845633 14.9164 1.23795 13.4661C1.25151 13.4164 1.24172 13.3471 1.21611 13.302C0.517319 12.0429 0.138554 10.6935 0.0798193 9.25753C0.0436747 8.37877 0.137048 7.5113 0.36747 6.66114C0.974398 4.4247 2.25678 2.67771 4.18976 1.40889C4.99473 0.880271 5.86973 0.505271 6.80346 0.271084C7.29367 0.148343 7.7884 0.0421687 8.29744 0.0444277C8.22515 0.0293675 8.15211 0.0143072 8.07982 0ZM2.15286 15.8697C2.20105 15.8599 2.23042 15.8554 2.25828 15.8479C3.12952 15.6175 4 15.3863 4.87199 15.1596C4.91943 15.1476 4.98569 15.1596 5.02861 15.1852C6.12801 15.8426 7.30045 16.2643 8.59187 16.3268C9.14759 16.3539 9.69654 16.317 10.2432 16.2304C11.0617 16.1002 11.8268 15.811 12.5542 15.4209C13.2568 15.0444 13.8818 14.5602 14.4149 13.9699C16.0233 12.1913 16.6687 10.1092 16.3095 7.73569C16.0821 6.23343 15.4277 4.92545 14.3795 3.82681C13.125 2.5128 11.5881 1.75452 9.77861 1.55045C9.09036 1.47289 8.40587 1.50226 7.7259 1.61973C6.90738 1.76054 6.13404 2.03238 5.40889 2.43976C4.05723 3.19955 3.03313 4.27334 2.34413 5.66114C1.91039 6.53464 1.66717 7.4616 1.60316 8.43675C1.5384 9.42169 1.65738 10.3803 1.98419 11.3125C2.19654 11.9187 2.48946 12.4864 2.82982 13.0301C2.88554 13.119 2.8878 13.198 2.86069 13.2937C2.65663 14.0233 2.45633 14.7538 2.25527 15.4842C2.22139 15.6062 2.18976 15.7282 2.15211 15.8697H2.15286Z" fill="white"/>
<path id="Vector_2" d="M11.3266 13.2074C10.8657 13.2263 10.4425 13.0839 10.0193 12.9386C9.13832 12.6367 8.31528 12.2293 7.58636 11.6427C6.77612 10.9898 6.07808 10.2323 5.4719 9.38666C5.19856 9.00488 4.93952 8.61708 4.75353 8.1841C4.56452 7.7466 4.44404 7.29404 4.46287 6.81361C4.49073 6.10277 4.78139 5.51316 5.29118 5.02596C5.46212 4.86256 5.6707 4.79102 5.90564 4.79404C6.02763 4.79554 6.14961 4.80307 6.27085 4.7978C6.47943 4.78877 6.62702 4.87461 6.71061 5.06512C6.81227 5.2963 6.91016 5.52898 7.00805 5.76166C7.16016 6.12386 7.3085 6.48756 7.46437 6.84825C7.53064 7.00036 7.52537 7.14343 7.45534 7.29027C7.3341 7.54554 7.14434 7.74961 6.95684 7.95443C6.71513 8.21874 6.7076 8.27521 6.89736 8.57943C7.39736 9.37988 8.02085 10.0606 8.8198 10.5719C9.16543 10.7933 9.53365 10.9687 9.91317 11.1231C10.1255 11.2097 10.2204 11.1856 10.3642 11.0086C10.5946 10.7255 10.8213 10.4386 11.0465 10.151C11.1609 10.0049 11.2618 9.95669 11.4373 10.026C11.7068 10.1314 11.9704 10.2526 12.2324 10.3761C12.5909 10.5455 12.9425 10.727 13.301 10.8957C13.4802 10.98 13.5547 11.1148 13.5276 11.3016C13.496 11.523 13.4553 11.7443 13.4094 11.9635C13.3477 12.2586 13.1534 12.4672 12.9275 12.6464C12.4584 13.0199 11.9297 13.2338 11.3251 13.2074H11.3266Z" fill="white"/>
</g>
<defs>
<clipPath id="clip0_128_2331">
<rect width="17.9232" height="18" fill="white"/>
</clipPath>
</defs>
</svg>
